HIERARCHY
ROOT SpineBase
{
  OFFSET 0.000000 0.000000 0.000000
  CHANNELS 6 Xposition Yposition Zposition Zrotation Xrotation Yrotation
  JOINT SpineMid
  {
    OFFSET -0.000000 33.082334 0.000000
    CHANNELS 3 Zrotation Xrotation Yrotation
    JOINT SpineShoulder
    {
      OFFSET 0.351654 24.893780 -1.278815
      CHANNELS 3 Zrotation Xrotation Yrotation
      JOINT Neck
      {
        OFFSET -0.202725 8.363920 -0.889164
        CHANNELS 3 Zrotation Xrotation Yrotation
        JOINT Head
        {
          OFFSET -8.334186 10.335032 4.483813
          CHANNELS 3 Zrotation Xrotation Yrotation
          End Site
          {
            OFFSET 0 0 0
          }
        }
      }
      JOINT ShoulderLeft
      {
        OFFSET -10.047083 -11.928814 -13.690476
        CHANNELS 3 Zrotation Xrotation Yrotation
        JOINT ElbowLeft
        {
          OFFSET 4.419740 -24.893961 -6.181461
          CHANNELS 3 Zrotation Xrotation Yrotation
          JOINT WristLeft
          {
            OFFSET -0.486484 -20.291850 6.951368
            CHANNELS 3 Zrotation Xrotation Yrotation
            JOINT HandLeft
            {
              OFFSET 0.823142 -5.038467 2.776341
              CHANNELS 3 Zrotation Xrotation Yrotation
              JOINT HandTipLeft
              {
                OFFSET 1.719865 -11.139174 0.987616
                CHANNELS 3 Zrotation Xrotation Yrotation
                End Site
                {
                  OFFSET 0 0 0
                }
              }
              JOINT ThumbLeft
              {
                OFFSET -1.540925 1.137918 2.013353
                CHANNELS 3 Zrotation Xrotation Yrotation
                End Site
                {
                  OFFSET 0 0 0
                }
              }
            }
          }
        }
      }
      JOINT ShoulderRight
      {
        OFFSET 5.396775 -4.931012 -13.420018
        CHANNELS 3 Zrotation Xrotation Yrotation
        JOINT ElbowRight
        {
          OFFSET -1.471852 -26.057801 -6.407575
          CHANNELS 3 Zrotation Xrotation Yrotation
          JOINT WristRight
          {
            OFFSET -3.800088 -21.668425 0.472821
            CHANNELS 3 Zrotation Xrotation Yrotation
            JOINT HandRight
            {
              OFFSET -0.478229 -8.835039 2.995094
              CHANNELS 3 Zrotation Xrotation Yrotation
              JOINT HandTipRight
              {
                OFFSET -1.872565 -8.304704 0.883148
                CHANNELS 3 Zrotation Xrotation Yrotation
                End Site
                {
                  OFFSET 0 0 0
                }
              }
              JOINT ThumbRight
              {
                OFFSET 3.119004 3.616470 1.388471
                CHANNELS 3 Zrotation Xrotation Yrotation
                End Site
                {
                  OFFSET 0 0 0
                }
              }
            }
          }
        }
      }
    }
  }
  JOINT HipLeft
  {
    OFFSET -6.156608 -2.630688 0.707387
    CHANNELS 3 Zrotation Xrotation Yrotation
    JOINT KneeLeft
    {
      OFFSET 27.166728 -30.803733 10.227004
      CHANNELS 3 Zrotation Xrotation Yrotation
      JOINT AnkleLeft
      {
        OFFSET 8.436439 -34.989850 2.911903
        CHANNELS 3 Zrotation Xrotation Yrotation
        JOINT FootLeft
        {
          OFFSET -5.834603 -0.922368 -16.750893
          CHANNELS 3 Zrotation Xrotation Yrotation
          End Site
          {
            OFFSET 0 0 0
          }
        }
      }
    }
  }
  JOINT HipRight
  {
    OFFSET 6.442838 3.946642 -8.729998
    CHANNELS 3 Zrotation Xrotation Yrotation
    JOINT KneeRight
    {
      OFFSET 4.115494 -42.778028 3.207441
      CHANNELS 3 Zrotation Xrotation Yrotation
      JOINT AnkleRight
      {
        OFFSET 11.740358 -29.836285 0.295320
        CHANNELS 3 Zrotation Xrotation Yrotation
        JOINT FootRight
        {
          OFFSET -4.526403 -8.233987 -4.460027
          CHANNELS 3 Zrotation Xrotation Yrotation
          End Site
          {
            OFFSET 0 0 0
          }
        }
      }
    }
  }
}
MOTION
Frames: 14
Frame Time: 0.033333
-2.947951 73.882294 321.227439 5.266729 0.496178 21.180007 1.860194 -0.513150 -20.834785 -1.329034 1.414409 0.233366 -4.433173 -1.519917 -0.927864 0.000000 0.000000 0.000000 -5.873583 -2.027415 -0.777624 -8.549624 -46.948748 -4.743700 -2.205138 18.464660 -5.246576 4.573426 9.759378 4.009894 0.000000 0.000000 0.000000 0.000000 0.000000 0.000000 -0.510070 -1.393167 -1.975700 -4.957777 1.988947 0.833236 1.813862 -11.167643 1.895188 -1.974736 8.421453 -1.004886 0.000000 0.000000 0.000000 0.000000 0.000000 0.000000 -10.633815 1.781488 -24.337362 5.777632 -4.162050 1.816126 -1.423224 9.327041 -0.514844 0.000000 0.000000 0.000000 -12.951238 9.683312 -20.672601 9.634784 -5.935450 0.238850 0.694550 2.526810 -0.383473 0.000000 0.000000 0.000000
-3.908323 74.001665 320.965363 4.570878 1.118829 24.487849 1.849263 -0.554973 -24.201012 -1.188562 1.505739 0.235186 -3.208062 -1.648543 -0.624910 0.000000 0.000000 0.000000 -5.319908 -2.821503 -0.764322 -15.934899 -64.302114 -11.326388 -16.115049 22.367235 -3.179855 26.505619 15.369248 1.526684 0.000000 0.000000 0.000000 0.000000 0.000000 0.000000 1.251068 -1.779710 -2.177882 -6.426577 1.691195 1.082282 1.361322 -10.894861 1.590331 -1.615098 7.172104 -0.616756 0.000000 0.000000 0.000000 0.000000 0.000000 0.000000 -9.485259 2.784033 -26.396307 5.949871 -7.366081 0.235300 -1.140366 9.520353 -1.421561 0.000000 0.000000 0.000000 -11.024641 8.129099 -24.272830 7.747467 -4.951032 0.086796 3.574373 0.165892 -0.502770 0.000000 0.000000 0.000000
-4.307623 74.658143 321.179906 4.395575 1.201572 26.399883 1.955333 -0.270634 -26.149029 -1.351702 1.512330 0.220950 -2.242533 -1.560200 -0.384843 0.000000 0.000000 0.000000 -4.944328 -3.283050 -0.745832 -32.185117 -76.731125 -27.117159 -28.433521 17.185859 -0.802605 46.122040 19.757093 -8.534670 0.000000 0.000000 0.000000 0.000000 0.000000 0.000000 2.887022 -1.791577 -2.411232 -7.857430 1.505454 1.301489 0.545875 -10.020263 1.149384 -0.819508 5.931980 -0.306133 0.000000 0.000000 0.000000 0.000000 0.000000 0.000000 -8.804008 5.450790 -26.212059 7.211635 -12.056117 -1.949095 -1.442740 9.903742 -1.996750 0.000000 0.000000 0.000000 -9.705874 8.675926 -26.134494 6.553245 -5.609433 -0.043140 5.736269 1.867556 -2.498778 0.000000 0.000000 0.000000
-4.139210 75.617231 321.707140 4.768882 1.018532 28.675365 2.005993 -0.063161 -28.428076 -1.911892 1.297490 0.177607 -1.756976 -1.188193 -0.232504 0.000000 0.000000 0.000000 -4.672965 -3.168273 -0.701795 -72.440260 -82.909707 -67.175299 -47.086166 -6.055642 -6.012312 87.410011 36.230578 -43.920693 0.000000 0.000000 0.000000 0.000000 0.000000 0.000000 4.387158 -1.283677 -2.687291 -9.006388 1.575931 1.473950 -0.514724 -8.504072 0.702658 0.751665 3.588769 0.142266 0.000000 0.000000 0.000000 0.000000 0.000000 0.000000 -8.777414 9.564332 -25.969619 9.373354 -17.007628 -4.069526 -2.324423 10.321899 -1.694307 0.000000 0.000000 0.000000 -9.158794 10.542047 -28.245238 6.199938 -6.877545 -0.163320 4.952548 4.368475 -3.135575 0.000000 0.000000 0.000000
-4.219468 76.436810 322.235079 4.460955 0.680232 29.912286 2.436157 -0.346910 -29.628671 -2.476508 1.097054 0.119550 -1.162665 -0.890588 -0.435756 0.000000 0.000000 0.000000 -4.287270 -2.640372 -0.617889 -119.351374 -82.781049 -114.085654 -41.426137 -13.345439 -10.594368 113.684202 48.611989 -77.936425 0.000000 0.000000 0.000000 0.000000 0.000000 0.000000 5.766526 -0.309306 -2.967176 -9.722194 1.701042 1.574075 -2.557760 -7.311122 -0.065264 4.013475 2.946765 0.620845 0.000000 0.000000 0.000000 0.000000 0.000000 0.000000 -7.816928 13.049564 -24.698192 11.072571 -20.965851 -5.874890 -4.204349 12.322311 -1.002564 0.000000 0.000000 0.000000 -7.122957 12.585901 -29.331847 5.778204 -8.558108 -0.147843 4.520513 7.269905 -4.867503 0.000000 0.000000 0.000000
-4.657968 77.202343 322.272782 3.820007 0.554691 30.861154 2.581177 -0.581947 -30.575273 -2.673320 0.850135 0.077780 -0.969810 -1.461268 -0.981324 0.000000 0.000000 0.000000 -3.673474 -2.187726 -0.513210 -138.393398 -81.495318 -133.332840 -25.187789 -28.246554 -21.417030 113.346455 84.850465 -97.193277 0.000000 0.000000 0.000000 0.000000 0.000000 0.000000 7.366497 0.382577 -3.205991 -10.461519 2.362944 1.613221 -3.806150 -5.772660 -0.466514 5.664315 1.015060 1.145678 0.000000 0.000000 0.000000 0.000000 0.000000 0.000000 -5.989200 15.323829 -23.338547 11.460186 -25.348720 -7.925994 -5.843403 14.462740 -0.903190 0.000000 0.000000 0.000000 -4.397943 13.665444 -30.270239 5.244836 -9.674888 0.010110 4.084773 9.654309 -6.920773 0.000000 0.000000 0.000000
-5.195699 77.862231 322.124123 3.120449 0.552574 30.491178 2.523785 -0.796636 -30.215297 -2.790229 0.519859 0.031803 -0.479123 -2.038457 -1.662605 0.000000 0.000000 0.000000 -2.916654 -1.635655 -0.391073 -144.464564 -81.235711 -139.651037 -10.139199 -3.108054 -13.890137 -3.144845 52.600430 12.964118 0.000000 0.000000 0.000000 0.000000 0.000000 0.000000 8.747458 1.279143 -3.395234 -10.763014 2.775944 1.598831 -5.100701 -6.430436 -0.837796 7.841709 3.844819 0.857169 0.000000 0.000000 0.000000 0.000000 0.000000 0.000000 -3.241431 16.750789 -20.304806 9.854889 -29.954694 -10.825061 -7.769951 16.973073 0.180647 0.000000 0.000000 0.000000 -1.674907 14.497783 -29.896822 4.726450 -10.614598 0.298208 3.204559 12.539706 -9.353126 0.000000 0.000000 0.000000
-5.704318 78.181558 321.587501 2.276326 0.222050 30.149238 2.429502 -0.836028 -29.904299 -2.811769 0.347018 -0.023202 -0.273026 -3.110170 -2.588005 0.000000 0.000000 0.000000 -1.988115 -1.046488 -0.254760 -138.164345 -82.271061 -133.375417 -4.452409 7.784869 -12.860621 -14.427883 24.969483 18.080565 0.000000 0.000000 0.000000 0.000000 0.000000 0.000000 10.152238 1.829203 -3.495968 -11.120736 3.638051 1.549620 -6.544540 -6.096248 -1.380777 9.417667 6.084539 0.646267 0.000000 0.000000 0.000000 0.000000 0.000000 0.000000 -2.158600 17.474869 -19.121880 10.266435 -31.904375 -11.438889 -9.146675 19.156929 -1.289370 0.000000 0.000000 0.000000 1.535172 15.470255 -29.576485 4.281314 -11.288679 0.708078 2.936886 14.245325 -11.951759 0.000000 0.000000 0.000000
-6.090032 78.094353 320.304818 1.460282 0.094607 28.795652 2.218528 -0.795017 -28.596113 -2.734396 0.253139 -0.072201 -0.245330 -4.610555 -3.629726 0.000000 0.000000 0.000000 -1.053722 -0.708105 -0.135640 -132.242805 -82.482885 -127.277174 -3.624319 18.338822 -10.735977 -8.465447 2.062323 8.704260 0.000000 0.000000 0.000000 0.000000 0.000000 0.000000 11.483454 1.961001 -3.520502 -11.267343 4.454112 1.532983 -8.671870 -3.200465 -2.204151 11.344304 5.643961 1.212932 0.000000 0.000000 0.000000 0.000000 0.000000 0.000000 -2.829731 16.539917 -18.753808 11.705144 -30.192923 -9.990124 -8.971525 19.768757 -5.641867 0.000000 0.000000 0.000000 4.331120 16.063596 -28.229048 3.791393 -11.848567 1.054236 1.928094 16.500326 -14.242604 0.000000 0.000000 0.000000
-6.407362 77.960963 319.185465 0.738723 -0.276425 28.873470 1.864327 -0.581216 -28.734685 -2.652193 -0.108580 -0.137198 -0.073480 -5.375000 -4.398900 0.000000 0.000000 0.000000 -0.000000 0.000000 0.000000 -132.076922 -82.425210 -127.081670 -6.912078 22.580336 -8.159692 -3.743577 -1.855607 6.162986 0.000000 0.000000 0.000000 0.000000 0.000000 0.000000 12.729080 2.685426 -3.595053 -11.183898 5.066107 1.459271 -10.521226 0.116000 -2.852600 12.973242 3.769913 2.148888 0.000000 0.000000 0.000000 0.000000 0.000000 0.000000 -4.797848 15.890628 -20.971475 15.708371 -28.324543 -7.065236 -9.108650 21.058384 -10.360973 0.000000 0.000000 0.000000 7.399928 16.655359 -28.400007 3.194115 -12.241978 1.336104 3.611587 17.829467 -17.694038 0.000000 0.000000 0.000000
-5.616676 77.813889 317.450058 1.195537 -0.927292 29.365195 1.073062 0.160905 -29.261796 -2.051302 0.264680 -0.104375 -0.743156 -6.484200 -5.102954 0.000000 0.000000 0.000000 -0.000000 0.000000 0.000000 -131.976917 -82.386734 -126.962289 -10.189056 20.341454 -7.125608 -0.408341 0.526316 5.981881 0.000000 0.000000 0.000000 0.000000 0.000000 0.000000 12.861578 2.369760 -3.580423 -11.380199 5.921454 1.395496 -11.891495 2.259877 -3.382954 13.703277 2.111568 2.968808 0.000000 0.000000 0.000000 0.000000 0.000000 0.000000 -9.776125 15.775452 -25.254554 21.968525 -24.777534 -2.583810 -9.077535 22.652220 -15.065270 0.000000 0.000000 0.000000 8.096137 17.872935 -29.059025 3.552660 -12.364899 1.632317 2.545434 17.986418 -17.944371 0.000000 0.000000 0.000000
-5.131387 77.618189 315.324473 0.953411 -1.453755 30.549319 0.815437 0.212081 -30.459639 -2.271377 0.461412 -0.158295 -0.562634 -6.570847 -5.234306 0.000000 0.000000 0.000000 0.723671 0.399670 0.084116 -131.920982 -82.359393 -126.893176 -11.639725 16.106684 -7.632792 -0.968574 4.587130 7.931388 0.000000 0.000000 0.000000 0.000000 0.000000 0.000000 13.959468 2.522331 -3.649499 -12.060306 6.214803 1.472371 -12.560970 4.624674 -3.668272 13.793821 -0.725675 3.816765 0.000000 0.000000 0.000000 0.000000 0.000000 0.000000 -14.496909 17.236221 -29.279627 29.742638 -23.052266 1.147798 -9.509687 22.991036 -20.056083 0.000000 0.000000 0.000000 9.780078 17.703322 -30.383745 2.684657 -11.747668 1.692137 1.867207 14.841223 -16.586480 0.000000 0.000000 0.000000
-4.593617 77.360426 313.032543 0.693296 -1.861045 32.104878 0.852028 0.273609 -32.027343 -2.171581 0.472490 -0.168802 -0.834032 -6.904727 -5.603075 0.000000 0.000000 0.000000 0.901345 0.708400 0.107472 -131.918689 -82.347976 -126.886230 -14.456762 4.225422 -10.125698 -1.166906 18.021991 11.867485 0.000000 0.000000 0.000000 0.000000 0.000000 0.000000 14.605660 2.625424 -3.795065 -13.026845 6.051986 1.641431 -12.641083 6.968703 -3.750460 13.255858 -4.360294 4.529751 0.000000 0.000000 0.000000 0.000000 0.000000 0.000000 -19.255520 17.972071 -34.781156 37.291538 -19.582559 4.760940 -11.315849 26.501228 -22.208302 0.000000 0.000000 0.000000 11.045871 16.892829 -32.017621 1.686264 -11.152233 1.521563 -1.743687 14.150284 -13.873262 0.000000 0.000000 0.000000
-3.752369 77.248995 310.189234 0.696421 -2.325369 33.174462 0.946631 0.199615 -33.086013 -2.225687 0.366994 -0.180236 -0.977588 -6.717541 -5.886414 0.000000 0.000000 0.000000 0.844436 1.278119 0.111447 -131.943511 -82.340105 -126.908916 -16.144347 -19.904110 -18.450843 -14.515756 42.470824 27.398029 0.000000 0.000000 0.000000 0.000000 0.000000 0.000000 14.639277 3.010261 -3.922137 -12.886890 5.535966 1.793100 -13.277016 8.113438 -3.876779 13.676436 -6.636736 5.215470 0.000000 0.000000 0.000000 0.000000 0.000000 0.000000 -23.107376 19.136779 -38.705754 43.504783 -17.170733 6.962803 -13.196737 28.372515 -22.900677 0.000000 0.000000 0.000000 11.124030 15.844044 -33.100400 0.702078 -10.557589 1.100159 -8.122286 11.916272 -8.039671 0.000000 0.000000 0.000000
